<svg width="75" height="80" viewBox="0 0 75 80" fill="none" xmlns="http://www.w3.org/2000/svg">
<path opacity="0.3" d="M55 5H20C8.95431 5 0 13.9543 0 25V60C0 71.0457 8.9543 80 20 80H55C66.0457 80 75 71.0457 75 60V25C75 13.9543 66.0457 5 55 5Z" fill="#FCA0A0"/>
<rect width="36.1358" height="46.8726" rx="5.20833" transform="matrix(0.984464 0.175587 -0.179917 0.983682 28.0312 16.25)" fill="#FFBEBE"/>
<rect x="18.0391" y="19.2188" width="37.0253" height="45.9375" rx="5.20833" fill="#FF5061"/>
<path d="M25.907 41.9377H26.3119C26.2579 41.7911 26.2174 41.6445 26.1634 41.4979C26.0689 41.2046 26.2444 40.9781 26.5413 40.9647C26.7438 40.9647 26.9327 41.0181 27.1217 41.098C27.1622 40.9381 27.1082 40.8048 27.0947 40.6582C27.4861 40.7648 27.783 40.9647 27.7965 41.3779C27.7965 41.5912 27.81 41.7911 27.9585 41.9777C27.972 42.0043 27.9855 42.0443 27.9585 42.071C27.837 42.2442 27.9855 42.3242 28.0664 42.4042C28.7008 42.9906 29.3216 43.577 29.956 44.1634C30.0504 44.2567 30.1449 44.3234 30.3069 44.2701C30.5363 44.1901 30.7388 44.31 30.9142 44.43C30.9547 44.4566 30.9817 44.4966 31.0357 44.51C31.5351 44.5366 32.0074 44.4567 32.4798 44.2967C32.6013 44.2567 32.6823 44.1901 32.5608 44.0302C32.3179 43.697 32.1424 43.3371 32.0614 42.9239C31.886 42.0043 32.5338 41.3779 33.3976 41.3912C33.5056 41.3912 33.5056 41.4579 33.5056 41.5245C33.5056 41.871 33.5056 42.2309 33.5056 42.5774C33.5056 42.9506 33.8565 43.2571 34.2074 43.2438C34.3828 43.2438 34.5718 43.2438 34.7472 43.2438C35.2196 43.2038 35.611 43.3638 35.9215 43.7103C35.9889 43.7903 36.0159 43.8169 36.0969 43.7103C36.3803 43.3771 36.7312 43.2038 37.1766 43.2305C37.3791 43.2305 37.595 43.2305 37.7975 43.2305C38.1619 43.2438 38.5128 42.9239 38.5128 42.5108C38.5128 42.1776 38.5128 41.8444 38.5128 41.5112C38.5128 41.4179 38.5398 41.3779 38.6343 41.3779C39.4036 41.3779 40.0379 41.8977 39.9569 42.7507C39.9029 43.2172 39.714 43.6303 39.4576 44.0035C39.3631 44.1235 39.3766 44.2167 39.525 44.2701C39.9299 44.4167 40.3348 44.51 40.7667 44.4966C40.8477 44.4966 40.8612 44.4433 40.8882 44.3767C40.9827 44.1501 41.1176 43.9502 41.3336 43.8169C41.4011 43.7769 41.4416 43.7636 41.509 43.8169C41.6845 43.9635 41.8735 44.0968 42.0489 44.2434C42.1029 44.2967 42.1299 44.2834 42.1974 44.2434C42.3323 44.1235 42.4808 44.0035 42.6293 43.8969C42.8452 43.7369 42.9127 43.7503 43.0746 43.9235C43.6955 44.5766 43.4795 45.4562 42.7102 45.8294C42.1704 46.096 41.4686 45.976 41.1041 45.5096C40.9152 45.2697 40.6723 45.1364 40.4023 45.0297C39.9299 44.8432 39.4306 44.7232 38.9042 44.7099C38.6208 44.7099 38.5938 44.6699 38.6748 44.4033C38.8097 43.9369 38.6073 43.5104 38.1079 43.4571C37.7975 43.4171 37.541 43.5637 37.3251 43.7503C37.0147 44.0168 36.8392 44.39 36.6638 44.7499C36.6368 44.8165 36.6638 44.8565 36.7312 44.8698C36.9607 44.9365 37.1766 45.0164 37.4061 45.0964C38.1214 45.3763 38.7827 45.7095 39.3091 46.2692C39.4576 46.4159 39.5655 46.5891 39.633 46.7757C39.714 46.9889 39.5925 47.1755 39.4576 47.3355C39.3361 47.4821 39.1741 47.562 38.9987 47.642C38.9177 47.682 38.8637 47.642 38.8367 47.562C38.7152 47.0156 38.4183 46.5625 38.0269 46.1759C37.6355 45.7894 37.1766 45.4696 36.6503 45.283C36.6368 45.283 36.6098 45.283 36.5963 45.283C36.5423 45.283 36.4748 45.2163 36.4478 45.323C36.4208 45.4029 36.4748 45.4296 36.5288 45.4696C37.2846 45.8961 37.865 46.4692 38.1214 47.3088C38.2699 47.7886 37.9594 48.3217 37.4601 48.3884C37.3521 48.4017 37.3791 48.3351 37.3791 48.2818C37.2711 47.4954 37.0687 46.7357 36.5963 46.0827C36.5288 45.9894 36.4478 45.9094 36.3803 45.8161C36.3803 45.8028 36.3533 45.7894 36.3129 45.7761C36.2724 45.9094 36.2859 46.016 36.3129 46.1493C36.5153 46.8157 36.7043 47.4821 36.7447 48.1885C36.7717 48.5217 36.5963 48.7082 36.3668 48.8948C36.3263 48.9215 36.2994 48.9481 36.2589 48.9748C36.0834 49.0814 35.9215 49.1481 35.7055 49.0015C35.1656 48.6416 35.1252 48.415 35.1926 47.8952C35.2601 47.4154 35.3681 46.949 35.4896 46.4825C35.53 46.3492 35.557 46.2293 35.611 46.096C35.6515 45.9894 35.6515 45.8961 35.584 45.7894C35.3816 45.9494 35.2601 46.1493 35.1386 46.3625C34.8012 46.9623 34.5988 47.602 34.5448 48.2951C34.5448 48.3351 34.5718 48.4017 34.4773 48.4017C34.0994 48.3884 33.654 47.8286 33.735 47.4554C33.816 47.0956 33.9914 46.7757 34.2074 46.4825C34.5313 46.0427 34.9362 45.6961 35.4221 45.4429C35.4761 45.4163 35.5031 45.3896 35.4626 45.323C35.4356 45.2697 35.4086 45.2563 35.3411 45.2697C35.0307 45.3496 34.7472 45.5096 34.4773 45.6828C34.0319 46.0027 33.6405 46.3759 33.3706 46.8557C33.2491 47.0689 33.1412 47.2822 33.1007 47.5221C33.0872 47.642 33.0197 47.6953 32.9117 47.6287C32.7228 47.5354 32.5338 47.4421 32.4123 47.2555C32.2639 47.0423 32.2369 46.789 32.3853 46.5758C32.6418 46.1759 32.9927 45.8827 33.3976 45.6428C33.924 45.323 34.4773 45.0564 35.0712 44.9098C35.2736 44.8565 35.3006 44.8032 35.2061 44.6166C35.0172 44.2167 34.7877 43.8302 34.3963 43.577C34.0859 43.3904 33.6405 43.3504 33.3841 43.6436C33.1816 43.8702 33.2086 44.1368 33.2761 44.4033C33.3301 44.6432 33.3031 44.6832 33.0602 44.6966C32.4258 44.6966 31.832 44.8698 31.2651 45.1364C31.1167 45.203 31.1302 45.283 31.2381 45.3763C31.3596 45.4829 31.4946 45.5895 31.616 45.7095C31.7915 45.8694 31.805 45.976 31.697 46.0827C31.589 46.2026 31.4541 46.1893 31.2921 46.056C31.1572 45.936 31.0222 45.8161 30.9007 45.6828C30.8332 45.6162 30.7658 45.5895 30.6713 45.6295C30.2529 45.7761 29.9155 45.6695 29.659 45.323C29.5106 45.123 29.5106 44.9098 29.605 44.6966C29.6455 44.5899 29.632 44.5366 29.5646 44.47C28.9977 43.9369 28.4173 43.4037 27.8505 42.8706C27.7965 42.8173 27.7425 42.764 27.6885 42.7107C27.5806 42.5907 27.4861 42.5374 27.3241 42.6441C27.2027 42.724 27.0812 42.6441 27.0002 42.5508C26.9327 42.4841 26.8787 42.4841 26.7978 42.5108C26.4603 42.6441 25.907 42.3642 25.8125 41.8977L25.907 41.9377Z" fill="#FFE3E3"/>
<path d="M44.2894 40.6431C44.1139 41.0829 43.5741 41.2428 43.1422 41.2028C42.4673 41.1229 41.995 40.723 41.5901 40.2432C41.4551 40.0833 41.3066 39.91 41.1987 39.7234C41.1312 39.5902 41.0232 39.6701 40.9287 39.6968C40.8073 39.7368 40.8612 39.8034 40.8882 39.87C41.0637 40.5364 41.4956 41.0162 42.0219 41.4427C42.1434 41.536 42.2784 41.6293 42.4133 41.7226C42.5078 41.7759 42.5078 41.8292 42.4133 41.8826C42.1164 42.1225 41.725 42.1491 41.3876 42.0292C40.8612 41.8426 40.6048 41.4161 40.4159 40.9229C40.2944 40.6031 40.2134 40.2699 40.1459 39.9367C40.1324 39.8301 40.0649 39.8167 39.984 39.8301C39.3901 39.9234 38.8637 40.1366 38.6208 40.7364C38.5398 40.6964 38.5668 40.6431 38.5668 40.6031C38.5668 40.0167 38.5668 39.4302 38.5668 38.8305C38.5668 38.6839 38.5938 38.6705 38.7423 38.6972C39.1472 38.7772 39.5386 38.8571 39.9705 38.7505C40.6993 38.5639 41.1582 37.9775 41.0502 37.2311C41.0097 36.9779 40.8747 36.7513 40.6858 36.5781C40.5643 36.4714 40.5913 36.4048 40.7128 36.3248C41.4821 35.845 42.1299 35.2319 42.7643 34.5789C43.3851 33.9258 43.952 33.2061 44.4918 32.4864C44.8022 32.0732 45.0992 31.6467 45.3556 31.2069C45.4231 31.1003 45.4366 31.1003 45.5311 31.2069C46.1789 31.8333 46.1249 32.8729 45.72 33.566C45.4096 34.1124 44.9372 34.4856 44.4513 34.8454C43.9925 35.192 43.4931 35.4718 42.9937 35.7651C42.9262 35.805 42.8722 36.0583 42.9262 36.1249C42.9532 36.1649 42.9937 36.1516 43.0342 36.1382C43.682 35.9783 44.2894 35.7384 44.8697 35.4185C45.5851 35.0187 46.2059 34.5122 46.7593 33.9125C47.0427 34.4589 47.0022 34.992 46.7323 35.5118C46.4623 36.0449 45.9765 36.2982 45.4366 36.4848C44.6808 36.738 43.9115 36.8713 43.1287 36.9646C43.0477 36.9646 42.9262 36.9379 42.8857 37.0712C42.8182 37.2844 42.8452 37.2844 43.0747 37.3111C43.5471 37.3644 44.0194 37.3511 44.4918 37.3111C45.1127 37.2578 45.7065 37.1112 46.2869 36.8846C46.4488 36.818 46.6108 36.7646 46.7728 36.698C46.9212 37.4044 46.4623 38.0308 45.8415 38.2707C45.3421 38.4573 44.8157 38.404 44.3164 38.364C43.925 38.3373 43.5471 38.2574 43.1557 38.1907C43.0207 38.1641 42.8722 38.1507 42.7508 38.0974C42.5618 38.0175 42.5618 38.1907 42.5213 38.2707C42.4538 38.3907 42.5888 38.3907 42.6428 38.4173C43.3041 38.7238 44.0059 38.8971 44.7348 38.9371C45.0722 38.9504 45.4231 38.9904 45.7605 38.9638C45.882 38.9638 45.882 39.0304 45.8685 39.1104C45.8145 39.4302 45.6525 39.6968 45.3556 39.8434C44.8427 40.1099 44.3164 40.07 43.7765 39.91C43.1692 39.7234 42.6158 39.4302 42.1029 39.0704C42.0219 39.0037 41.968 39.0437 41.9005 39.1104C41.833 39.177 41.806 39.2436 41.86 39.3236C42.0624 39.5768 42.2919 39.8034 42.5618 39.99C42.9937 40.2832 43.4796 40.4698 43.979 40.6164C44.1004 40.6564 44.2219 40.6564 44.3569 40.683L44.2894 40.6431Z" fill="#FFE3E3"/>
<path d="M25.4092 36.6716C25.7871 36.8048 26.1515 36.9648 26.5294 37.0714C27.2447 37.258 27.9601 37.338 28.6889 37.3246C28.8508 37.3246 29.0128 37.2713 29.1748 37.2847C29.2287 37.2847 29.3367 37.2846 29.3097 37.2313C29.2827 37.1514 29.3502 37.0181 29.2017 36.9781C29.0803 36.9381 28.9453 36.9515 28.8238 36.9381C28.4054 36.8715 27.9736 36.8182 27.5552 36.7116C26.8803 36.5383 26.165 36.405 25.6656 35.8452C25.2068 35.3388 25.0988 34.739 25.2877 34.086C25.3282 33.9394 25.3822 33.886 25.5037 34.0326C25.9221 34.4991 26.4214 34.8856 26.9478 35.2188C27.5012 35.5654 28.0815 35.8586 28.7294 36.0185C28.8373 36.0452 28.9318 36.1118 29.0398 36.1118C29.0938 36.1118 29.1748 36.1918 29.1882 36.0851C29.1882 35.9918 29.3097 35.8719 29.1613 35.7786C28.8103 35.5787 28.4594 35.3654 28.122 35.1389C27.5012 34.7124 26.8533 34.2992 26.4619 33.6461C26.0435 32.9664 25.9356 32.1268 26.4214 31.3937C26.6374 31.0605 26.6914 31.0739 26.9073 31.4071C27.3662 32.1268 27.8791 32.8198 28.4189 33.4995C28.8103 33.9927 29.2287 34.4725 29.6741 34.9123C30.187 35.4187 30.7269 35.8985 31.3477 36.2851C31.5232 36.3917 31.5367 36.4583 31.3882 36.6183C31.0643 36.9648 31.0103 37.3779 31.1048 37.8178C31.2127 38.2709 31.7256 38.6441 32.144 38.7507C32.5759 38.8573 32.9943 38.7774 33.3992 38.6841C33.5342 38.6574 33.5476 38.6974 33.5476 38.804C33.5476 39.4038 33.5476 40.0035 33.5476 40.6166C33.5476 40.6566 33.5611 40.7232 33.5207 40.7366C33.4397 40.7632 33.4532 40.6699 33.4397 40.63C33.3047 40.3367 33.0753 40.1368 32.7783 40.0035C32.5759 39.9102 32.3599 39.8569 32.1305 39.8303C32.0225 39.8169 31.982 39.8303 31.9685 39.9502C31.9011 40.3367 31.7931 40.7099 31.6446 41.0564C31.4557 41.4829 31.1992 41.8561 30.7269 42.0161C30.376 42.136 30.0385 42.096 29.7281 41.8961C29.6066 41.8161 29.6336 41.7362 29.7281 41.6695C30.2815 41.3497 30.7134 40.9098 31.0238 40.3501C31.1048 40.2035 31.1722 40.0435 31.2127 39.8836C31.2397 39.8036 31.2937 39.7237 31.1588 39.6703C31.0373 39.6304 30.9833 39.617 30.8888 39.737C30.5784 40.1635 30.2545 40.59 29.7956 40.8832C29.3772 41.1497 28.9318 41.2697 28.4459 41.1497C28.2165 41.0964 28.041 40.9631 27.8926 40.7899C27.8251 40.7099 27.7711 40.6433 27.9466 40.6166C28.6079 40.4967 29.2152 40.2434 29.7551 39.8436C29.9576 39.6837 30.133 39.4971 30.295 39.2972C30.3759 39.1905 30.3085 39.1239 30.2545 39.0573C30.1735 38.964 30.106 39.0173 30.0385 39.0573C29.4582 39.4704 28.8373 39.777 28.149 39.9369C27.7036 40.0435 27.2717 40.0302 26.8533 39.817C26.5429 39.657 26.3675 39.3905 26.327 39.0439C26.327 38.9506 26.354 38.9107 26.4484 38.924C26.9613 38.9506 27.4742 38.9107 27.9736 38.844C28.5539 38.7774 29.0938 38.5908 29.6201 38.3509C29.6876 38.3242 29.7011 38.2709 29.6606 38.2176C29.6201 38.151 29.6201 38.0177 29.4852 38.0577C29.0803 38.1643 28.6619 38.2176 28.257 38.2842C27.6901 38.3775 27.1098 38.4442 26.5429 38.3109C25.8006 38.1243 25.2607 37.5512 25.4092 36.6849V36.6716Z" fill="#FFE3E3"/>
<path d="M35.4079 32.7005C35.3135 33.1803 35.03 33.4868 34.6656 33.7267C34.5441 33.8067 34.5441 33.8067 34.6521 33.9133C35.1785 34.4598 35.5294 35.0862 35.7588 35.8059C35.8938 36.2057 35.9748 36.6056 36.0558 37.0454C36.1772 36.8321 36.1637 36.6056 36.2177 36.4056C36.4472 35.4727 36.8116 34.6197 37.5134 33.9133C37.6214 33.7934 37.5674 33.78 37.4729 33.7134C37.149 33.5002 36.8926 33.2203 36.7711 32.8471C36.7711 32.8204 36.7711 32.7805 36.7576 32.7538C36.7576 32.7538 36.7576 32.7271 36.7711 32.7138C37.5539 32.967 38.3502 32.8871 39.1465 32.8871C39.6324 32.8871 40.1317 32.8871 40.6041 33.047C41.117 33.2069 41.3329 33.82 41.036 34.2465C41.009 34.2865 40.9685 34.3398 40.9145 34.2465C40.6851 33.8867 40.3072 33.8867 39.9428 33.94C39.079 34.0599 38.5121 34.5664 38.0937 35.2861C37.8643 35.6859 37.7428 36.0991 37.7428 36.5522C37.7428 37.032 37.8778 37.4585 38.2692 37.7917C38.2827 37.8051 38.2962 37.8317 38.3097 37.8717H33.8693C33.8423 37.8051 33.9098 37.7651 33.9503 37.7384C34.3282 37.3786 34.4362 36.9254 34.4092 36.4323C34.3687 35.7659 34.0853 35.2195 33.6534 34.7263C33.262 34.2865 32.7626 33.9933 32.1687 33.9266C31.9528 33.9 31.7369 33.9267 31.5344 33.9933C31.4129 34.0333 31.305 34.1132 31.251 34.2332C31.2105 34.3398 31.17 34.3132 31.1295 34.2332C30.8191 33.6468 31.008 33.1536 31.6829 32.9937C32.0743 32.9004 32.4657 32.8871 32.8706 32.8737C33.4914 32.8737 34.1123 32.9004 34.7331 32.8338C34.949 32.8071 35.165 32.7538 35.4079 32.6738V32.7005Z" fill="#FFE3E3"/>
<path d="M33.7993 32.1298C34.0962 32.1298 34.3256 31.9965 34.5416 31.8233C34.771 31.65 34.8925 31.3968 35.0005 31.1302C35.0544 30.9703 34.9195 30.8903 34.8655 30.797C34.7035 30.5171 34.5416 30.2372 34.4606 29.9174C34.3931 29.6641 34.4336 29.4242 34.6091 29.2376C34.771 29.0777 35.014 28.9844 35.2434 29.0511C35.3919 29.091 35.4458 29.2643 35.5538 29.3843C35.6888 29.5309 35.8237 29.6908 35.9587 29.8507C36.0397 29.9574 36.0937 29.9574 36.1747 29.8507C36.3771 29.5975 36.5931 29.3709 36.7955 29.1177C36.8495 29.0511 36.89 29.0377 36.971 29.0511C37.6053 29.1044 37.7538 29.4775 37.6323 30.0107C37.5648 30.3039 37.4029 30.5704 37.2409 30.8103C37.1059 30.9969 37.1059 31.1569 37.2004 31.3435C37.4028 31.7566 37.7403 32.0098 38.1857 32.1298C38.2261 32.1298 38.2666 32.1565 38.2936 32.1298C38.3341 32.0898 38.2936 32.0498 38.2666 32.0098C38.1587 31.8099 38.1047 31.61 38.1587 31.3968C38.2396 31.0769 38.5905 30.9569 38.8335 31.1702C38.901 31.2235 38.9685 31.2768 39.0224 31.3301C39.1574 31.4456 39.2969 31.4456 39.4408 31.3301C39.4408 31.3301 39.5488 31.2502 39.5893 31.1968C39.7108 31.0369 39.8592 31.0236 40.0347 31.0902C40.1966 31.1569 40.2911 31.2768 40.3181 31.4634C40.3451 31.8233 40.1427 32.0765 39.9672 32.343C39.9402 32.3964 39.8862 32.3697 39.8457 32.3697C39.3194 32.3697 38.7795 32.4097 38.2531 32.3697C37.5378 32.3031 37.0114 31.9565 36.7145 31.1968C36.674 31.0902 36.6335 31.0769 36.5391 31.0769C36.2421 31.0769 35.9452 31.0769 35.6483 31.0769C35.5133 31.0769 35.4593 31.1169 35.4189 31.2502C35.2029 31.8099 34.8115 32.1698 34.2177 32.3297C33.9072 32.4097 33.6103 32.383 33.3134 32.3964C33.0569 32.3964 32.787 32.3964 32.5306 32.3964C32.3011 32.4097 32.1392 32.3697 32.0312 32.1431C31.9097 31.9032 31.7748 31.69 31.8423 31.4101C31.8692 31.2635 31.9637 31.1435 32.1122 31.0902C32.2606 31.0369 32.3956 31.0103 32.5171 31.1569C32.5441 31.1835 32.5711 31.2102 32.6116 31.2368C32.9625 31.5434 32.976 31.5434 33.2729 31.1968C33.4079 31.0369 33.5563 31.0236 33.7318 31.0902C33.9072 31.1569 33.9882 31.2901 33.9882 31.4767C33.9882 31.5967 33.9882 31.7033 33.9477 31.8099C33.9072 31.9165 33.8667 32.0232 33.8263 32.1431L33.7993 32.1298Z" fill="#FFE3E3"/>
<path d="M34.9881 40.5906C34.8666 40.7505 34.9206 41.0171 34.6372 41.0704C34.7047 40.8971 34.6507 40.7639 34.5697 40.6306C34.4887 40.4973 34.4347 40.3507 34.5697 40.2041C34.6507 40.1241 34.9341 40.1108 35.0421 40.2041C35.1365 40.2974 35.2175 40.2974 35.312 40.2174C35.3525 40.1908 35.4065 40.1774 35.4605 40.1774C35.5279 40.1774 35.5684 40.1508 35.5549 40.0708C35.5549 40.0042 35.5414 39.9375 35.447 39.9509C35.258 39.9509 35.0961 39.8976 34.9341 39.8176C34.7721 39.7376 34.6372 39.6177 34.6372 39.4444C34.6372 39.2978 34.7586 39.1645 34.9206 39.1112C34.9476 39.1112 34.9881 39.0845 35.0016 39.0712C35.0826 39.0046 35.2445 39.0312 35.258 38.9379C35.258 38.818 35.1905 38.698 35.15 38.5781C35.1096 38.4448 35.0556 38.3115 35.0016 38.1783C34.9881 38.1383 34.9611 38.085 35.0151 38.0716C35.0691 38.045 35.0961 38.0983 35.1096 38.1383C35.177 38.3115 35.258 38.4715 35.3255 38.6447C35.6224 39.4711 35.9194 40.3107 36.2298 41.137C36.4187 41.6435 36.6077 42.1366 36.8101 42.6431C36.8776 42.8164 36.8371 42.8697 36.6482 42.923C36.1893 43.0296 35.7439 43.0429 35.312 42.843C35.1231 42.7497 34.9611 42.6698 34.7451 42.6698C34.5967 42.6698 34.4617 42.5498 34.4212 42.3899C34.3807 42.2299 34.4212 42.0833 34.5562 41.9367C34.5562 42.0167 34.5562 42.07 34.5562 42.1233C34.5562 42.1899 34.6102 42.2166 34.6642 42.2166C34.7317 42.2166 34.7047 42.15 34.7182 42.11C34.7451 41.7635 34.8396 41.4303 35.0286 41.137C35.15 40.9371 34.9881 40.7639 35.0016 40.5639L34.9881 40.5906ZM35.5819 41.9234C35.5549 41.7768 35.4875 41.6568 35.4875 41.5102C35.4875 41.4303 35.5279 41.3103 35.4605 41.2836C35.3795 41.2437 35.339 41.3769 35.285 41.4303C35.1096 41.6035 34.9476 41.7901 34.9071 42.0967C35.1365 41.9634 35.3525 41.9234 35.5954 41.9234H35.5819Z" fill="#FFE3E3"/>
<path d="M36.4079 39.3394C36.6508 39.0995 36.9477 39.0995 37.2312 39.1395C37.4336 39.1661 37.5551 39.5126 37.4606 39.7392C37.4201 39.8325 37.3661 39.9125 37.3122 39.9925C37.2717 40.0458 37.2177 40.0724 37.1367 40.0591C37.0557 40.0324 37.0557 39.9658 37.0827 39.8992C37.0827 39.8992 37.0827 39.8992 37.0827 39.8858C37.0827 39.8059 37.1232 39.7126 37.0422 39.6593C37.0152 39.6326 36.9747 39.6593 36.9612 39.6859C36.8938 39.7659 36.8803 39.8458 36.9207 39.9391C36.9477 40.0191 36.9747 40.0857 36.9882 40.179C37.0152 40.379 37.0557 40.5256 37.3391 40.5256C37.6226 40.5256 37.7845 40.8055 37.7575 41.0853C37.7575 41.1253 37.744 41.1786 37.6766 41.192C37.6361 40.9654 37.5146 40.8188 37.2852 40.7788C37.0152 40.7255 36.8398 40.8854 36.9207 41.1253C37.0017 41.3919 37.0152 41.6718 37.0827 41.9517C37.2177 41.9117 37.3122 41.805 37.4606 41.7917C37.6631 41.7784 37.7575 41.8584 37.717 42.0583C37.6496 42.3915 37.3931 42.5914 37.1232 42.7647C37.0827 42.7913 37.0152 42.8046 36.9882 42.7113C36.8533 42.3248 36.7048 41.9517 36.5698 41.5785C36.3809 41.032 36.1784 40.4989 35.9625 39.9525C35.8545 39.6593 35.76 39.366 35.6386 39.0862C35.5846 38.9795 35.6656 38.9529 35.7465 38.9396C35.868 38.9396 35.949 38.9395 35.949 38.7663C35.949 38.6863 36.0165 38.5797 36.1379 38.5797C36.2189 38.5797 36.3269 38.553 36.3539 38.6463C36.3809 38.7396 36.3809 38.8463 36.2864 38.9262C36.1919 38.9929 36.2054 39.0728 36.2864 39.1528C36.3539 39.2061 36.3944 39.2861 36.4349 39.366L36.4079 39.3394Z" fill="#FFE3E3"/>
<path d="M43.0995 32.8344C42.9781 32.7544 42.8566 32.6877 42.7216 32.6478C42.4652 32.5811 42.3707 32.6478 42.3707 32.901C42.3707 32.9543 42.3707 32.9943 42.3707 33.0476C42.0738 32.9676 41.9658 32.6611 42.1413 32.3945C42.2223 32.2613 42.3437 32.1546 42.4517 32.0347C42.5867 31.8881 42.7351 31.7415 42.7351 31.5149C42.7351 31.235 42.5867 31.0218 42.3032 30.9285C42.2088 30.9018 42.1143 30.8752 42.0333 30.8485C41.9253 30.8218 41.8174 30.7952 41.7094 30.8485C41.5474 30.9285 41.6824 31.0351 41.6824 31.1284C41.6824 31.7281 41.4125 32.0747 40.8726 32.2613C40.7511 32.3012 40.6297 32.3679 40.4947 32.3412C40.4407 32.3412 40.3867 32.3412 40.3867 32.2746C40.3867 32.1946 40.4407 32.2079 40.4947 32.1946C41.0211 32.1146 41.2775 31.8614 41.345 31.4083C41.3855 31.1684 41.291 30.9551 41.156 30.7685C40.9806 30.5286 40.9671 30.5153 41.1425 30.2487C41.264 30.0488 41.4395 30.0088 41.6284 30.1421C41.7229 30.2088 41.8039 30.2887 41.8848 30.3687C42.0063 30.4886 42.1278 30.6086 42.2492 30.7419C42.4787 30.9818 42.7891 30.9818 43.0725 31.0484C43.0995 31.0484 43.14 31.0484 43.167 31.0484C43.6259 31.1417 43.6394 31.4216 43.3965 31.6748C43.194 31.8881 43.0051 32.1146 43.0455 32.4478C43.059 32.5678 43.086 32.6877 43.113 32.8344H43.0995Z" fill="#FFE3E3"/>
<path d="M29.7552 33.0757C29.7822 32.4892 29.5393 32.5825 29.1748 32.7425C29.1209 32.7691 29.0804 32.7958 29.0129 32.8357C29.0129 32.6358 29.0804 32.4492 29.0534 32.2626C29.0264 32.0494 28.9184 31.9028 28.7834 31.7695C28.716 31.7029 28.662 31.6229 28.6215 31.5429C28.5135 31.3297 28.5945 31.1698 28.8239 31.1031C28.9859 31.0631 29.1479 31.0232 29.3098 31.0098C29.6607 30.9965 29.8767 30.7699 30.0926 30.53C30.2006 30.4101 30.3221 30.2901 30.4435 30.1835C30.592 30.0636 30.8214 30.0635 30.9159 30.1702C31.0914 30.3568 31.1319 30.5567 31.0104 30.7166C30.646 31.1564 30.7135 31.7029 31.0644 31.9961C31.2128 32.116 31.3883 32.196 31.5907 32.2093C31.6447 32.2093 31.7392 32.196 31.7257 32.2893C31.7257 32.3959 31.6312 32.3559 31.5772 32.3559C31.0239 32.2893 30.4165 31.9295 30.43 31.2631C30.43 31.1964 30.43 31.1298 30.43 31.0765C30.43 30.8366 30.3895 30.7966 30.1466 30.8499C30.0386 30.8766 29.9172 30.9032 29.8092 30.9299C29.3233 31.0898 29.2018 31.5563 29.5393 31.9295C29.6472 32.0494 29.7687 32.1694 29.8767 32.2893C30.1196 32.5825 30.0656 32.969 29.7282 33.0623L29.7552 33.0757Z" fill="#FFE3E3"/>
<path d="M36.5708 28.2241C36.5708 28.2241 36.5303 28.304 36.5034 28.3307C36.3954 28.4773 36.2739 28.6372 36.1524 28.7838C36.0985 28.8638 36.0445 28.8771 35.977 28.7838C35.8555 28.6239 35.7206 28.464 35.5991 28.304C35.5451 28.2374 35.5451 28.1841 35.5991 28.1174C35.734 27.9575 35.8825 27.8109 36.004 27.6376C36.0445 27.5843 36.058 27.5843 36.0985 27.6376C36.2469 27.8109 36.3954 27.9842 36.5303 28.1708C36.5303 28.1841 36.5438 28.1974 36.5573 28.2241H36.5708Z" fill="#FFE3E3"/>
<path d="M42.6194 43.2304C42.6194 43.2304 42.5924 43.2837 42.5654 43.3104C42.5519 43.3371 42.5249 43.3637 42.4979 43.377C42.3764 43.457 42.2685 43.6703 42.1605 43.6436C41.9985 43.5903 41.8906 43.417 41.7421 43.2971C41.6881 43.2438 41.7151 43.2038 41.7421 43.1638C41.8636 43.0438 41.9985 42.9372 42.093 42.7906C42.093 42.7773 42.147 42.7373 42.1875 42.7906C42.309 42.9239 42.4304 43.0572 42.5519 43.1905C42.5519 43.2038 42.5789 43.2171 42.5924 43.2438L42.6194 43.2304Z" fill="#FFE3E3"/>
<path d="M39.2424 29.7168C39.2424 29.7168 39.2694 29.7435 39.2829 29.7701C39.3908 29.9034 39.5663 30.0233 39.5798 30.1566C39.5933 30.3032 39.3773 30.3965 39.2964 30.5431C39.2559 30.6231 39.2154 30.6098 39.1749 30.5431C39.1749 30.5298 39.1479 30.5165 39.1479 30.4898C39.0669 30.3832 38.878 30.2366 38.905 30.1699C38.9589 29.9967 39.1074 29.8501 39.2559 29.7301L39.2424 29.7168Z" fill="#FFE3E3"/>
<path d="M32.8846 30.5808C32.7766 30.4609 32.6686 30.3276 32.5741 30.2077C32.5471 30.181 32.5202 30.1277 32.5741 30.101C32.5741 30.101 32.5741 30.101 32.5741 30.0877C32.6686 29.9544 32.7631 29.7412 32.8846 29.7545C33.006 29.7678 33.1005 29.9811 33.2085 30.101C33.2625 30.1677 33.2085 30.2076 33.1815 30.2476C33.087 30.3543 32.9925 30.4609 32.8846 30.5942V30.5808Z" fill="#FFE3E3"/>
<path d="M40.0925 34.8214C39.7281 34.6082 39.3907 34.4749 38.9453 34.6348C39.1613 34.4083 39.3907 34.315 39.6201 34.2084C39.6606 34.195 39.7146 34.2083 39.7686 34.235C39.9441 34.3816 40.0115 34.5815 40.0925 34.8214Z" fill="#FFE3E3"/>
<path d="M33.1813 34.6356C32.7494 34.4757 32.4255 34.5956 32.1016 34.7822C32.1016 34.5823 32.2365 34.3024 32.3985 34.2224C32.4255 34.2091 32.4795 34.1958 32.5065 34.2224C32.7359 34.3157 32.9518 34.4223 33.1813 34.6356Z" fill="#FFE3E3"/>
</svg>
