<svg width="75" height="80" viewBox="0 0 75 80" fill="none" xmlns="http://www.w3.org/2000/svg">
<rect y="5" width="75" height="75" rx="20" fill="#EADDFF"/>
<path d="M34.693 18.1557C36.3484 16.8844 38.6516 16.8844 40.307 18.1557L47.6173 23.7696C47.9377 24.0156 48.2891 24.2185 48.6623 24.3729L57.1793 27.8969C59.108 28.6949 60.2596 30.6895 59.9863 32.7588L58.7797 41.8967C58.7268 42.2971 58.7268 42.7029 58.7797 43.1033L59.9863 52.2412C60.2596 54.3105 59.108 56.3051 57.1793 57.1031L48.6623 60.6271C48.2891 60.7815 47.9377 60.9844 47.6173 61.2304L40.307 66.8443C38.6516 68.1156 36.3484 68.1156 34.693 66.8443L27.3827 61.2304C27.0623 60.9844 26.7109 60.7815 26.3377 60.6271L17.8207 57.1031C15.892 56.3051 14.7404 54.3105 15.0137 52.2412L16.2203 43.1033C16.2732 42.7029 16.2732 42.2971 16.2203 41.8967L15.0137 32.7588C14.7404 30.6895 15.892 28.6949 17.8207 27.8969L26.3377 24.3729C26.7109 24.2185 27.0623 24.0156 27.3827 23.7696L34.693 18.1557Z" fill="#3C1E7C"/>
<path d="M25.5294 42.7091C25.6162 41.9167 26.1874 41.0991 26.8986 40.7463C27.4306 40.4831 28.3042 40.5699 28.2622 39.7775C28.2426 39.4163 27.929 39.2651 27.7246 39.0159C26.5066 37.5403 27.3046 35.1967 29.189 34.8439C29.3066 34.8215 29.7546 34.7627 29.8442 34.7935C29.9086 34.8159 30.0626 35.4515 30.1186 35.5915C30.5778 36.7535 31.6754 37.6999 32.9046 37.9519C33.4646 38.0667 34.4082 38.1983 34.411 37.3611C34.411 36.6695 33.7558 36.7451 33.305 36.6555C30.0626 36.0059 30.7962 31.3047 33.963 31.5651C35.0466 31.6547 36.3122 32.7355 36.3122 33.8695V42.3507H33.7838C33.0782 42.3507 32.143 41.5471 31.8434 40.9367C31.5858 40.4075 31.6726 40.0631 31.5494 39.5759C31.3758 38.9039 30.2026 38.9739 30.225 39.9147C30.2446 40.7239 30.6114 41.6647 31.1238 42.2835L31.9274 43.0451C31.1266 43.6079 30.5526 44.4367 30.3398 45.3943C30.1942 46.0551 30.085 47.0799 31.0986 46.9147C31.611 46.8307 31.5578 46.1587 31.6278 45.7891C31.8238 44.7923 32.8542 43.6947 33.9182 43.6947H36.3122V52.0863C36.3122 53.2539 35.2034 54.3571 34.075 54.4803H33.403C32.4174 54.3179 31.5606 53.6655 31.289 52.6799C30.8382 51.0503 31.8154 49.6783 33.431 49.3843C33.5542 49.3619 33.6858 49.3899 33.8174 49.3675C34.4138 49.2667 34.6238 48.5275 34.1394 48.1691C33.7754 47.9003 33.0138 48.0683 32.5966 48.1915C31.2498 48.5891 30.085 49.8463 29.9114 51.2575C27.7414 51.4283 26.3498 48.9811 27.6126 47.1891C27.8254 46.8867 28.223 46.6851 28.2566 46.3127C28.3294 45.5119 27.4698 45.5875 26.949 45.3383C26.1398 44.9519 25.7058 44.2407 25.5266 43.3811C25.5434 43.1655 25.5042 42.9219 25.5266 42.7091H25.5294Z" fill="#C098FF"/>
<path d="M39.1491 32.2812C39.3703 32.3176 39.6167 32.5696 39.6783 32.7824C39.7539 33.0456 39.8575 34.5268 39.9303 34.5884C40.2915 34.692 40.6555 34.804 41.0055 34.9468C41.3807 35.098 41.7335 35.3108 42.1003 35.462C42.2571 35.4452 43.2455 34.5212 43.5255 34.3784C43.8419 34.2132 44.0967 34.2888 44.3627 34.4988C44.7995 34.8432 45.8411 35.8961 46.1967 36.3329C46.5215 36.7305 46.4907 36.9741 46.2135 37.3829C46.0679 37.5957 45.2587 38.514 45.2587 38.6624C45.6171 39.326 45.9335 40.0204 46.1127 40.7596L46.1799 40.8269C46.6195 40.8773 47.0731 40.9024 47.5099 40.9724C47.9999 41.0508 48.3835 41.1068 48.4339 41.7032C48.4927 42.3752 48.4955 43.7249 48.4339 44.3913C48.4031 44.7161 48.2547 44.9232 47.9411 45.0156C47.6639 45.0996 46.1771 45.2004 46.1127 45.2676C45.9531 46.0208 45.6115 46.718 45.2615 47.3984L45.2783 47.4964L46.3843 48.9441C46.4599 49.1793 46.4403 49.3976 46.3031 49.5992C46.1099 49.8904 44.6231 51.3604 44.3151 51.5956C43.5311 52.1948 42.7583 50.918 42.0919 50.596C41.4143 50.9432 40.7171 51.2625 39.9779 51.4613C39.9191 51.4921 39.8995 51.5312 39.8883 51.5956C39.7819 52.1108 39.8267 52.8192 39.6783 53.3092C39.6363 53.4492 39.3787 53.7656 39.2387 53.7656H37.2031C38.0123 52.0072 37.5083 49.9269 37.6567 48.0425C37.6847 47.9977 38.4155 47.9557 38.5555 47.9333C41.4871 47.4601 43.1587 44.66 42.5063 41.8152C41.9827 39.5248 39.9807 38.0492 37.6511 38.0576V33.9192C37.6007 33.3452 37.4355 32.8076 37.2031 32.284H39.1491V32.2812Z" fill="#C098FF"/>
<path d="M37.6523 46.6936V39.3996C39.4863 39.3184 41.1943 40.8612 41.3231 42.6868C41.4799 44.91 39.8559 46.6376 37.6523 46.6936Z" fill="#C098FF"/>
</svg>
