<svg width="75" height="75" viewBox="0 0 75 75" fill="none" xmlns="http://www.w3.org/2000/svg">
<rect width="75" height="75" rx="20" fill="#FFEBD6"/>
<path d="M55 53.2134C55 54.2528 54.6202 55.1438 53.8607 55.8863C53.1011 56.6288 52.1897 57 51.1263 57H23.8737C22.8103 57 21.8989 56.6288 21.1393 55.8863C20.3798 55.1438 20 54.2528 20 53.2134V26.5733C20 25.5338 20.3798 24.6428 21.1393 23.9004C21.8989 23.1579 22.8103 22.7866 23.8737 22.7866H27.793V19H31.6667V22.7866H43.3333V19H47.207V22.7866H51.1263C52.1897 22.7866 53.1011 23.1579 53.8607 23.9004C54.6202 24.6428 55 25.5338 55 26.5733V53.2134ZM31.6667 49.3822V45.5955H27.793V49.3822H31.6667ZM31.6667 41.8089V37.9777H27.793V41.8089H31.6667ZM39.4596 49.3822V45.5955H35.5404V49.3822H39.4596ZM39.4596 41.8089V37.9777H35.5404V41.8089H39.4596ZM47.207 49.3822V45.5955H43.3333V49.3822H47.207ZM47.207 41.8089V37.9777H43.3333V41.8089H47.207ZM51.1263 32.2755V28.4889H23.8737V32.2755H51.1263Z" fill="#FF850B"/>
</svg>
