<svg width="75" height="75" viewBox="0 0 75 75" fill="none" xmlns="http://www.w3.org/2000/svg">
<rect width="75" height="75" rx="20" fill="#EADDFF"/>
<path d="M16 28.3975L35.3349 22L59 28.3975V30.5467L39.6651 39.0433L16 30.5467V28.3975ZM20.3302 36.9442L26.7752 39.0433V45.8407L28.8899 46.5904V39.7431L39.6651 43.3417L54.7705 36.9442V46.0406C54.7705 46.1073 54.7537 46.1906 54.7201 46.2905C54.7201 46.3905 54.7034 46.4904 54.6698 46.5904C54.4684 47.3901 53.9649 48.2064 53.1593 49.0394C52.3872 49.9058 51.3466 50.6888 50.0375 51.3885C48.7619 52.0882 47.2514 52.6714 45.5059 53.1378C43.7603 53.6376 41.8134 53.9209 39.6651 53.9875C36.9797 54.0541 34.4621 53.8542 32.1124 53.3877C29.7627 52.8879 27.7151 52.2382 25.9696 51.4385C24.224 50.6388 22.8478 49.7558 21.8407 48.7895C20.8337 47.8232 20.3302 46.9069 20.3302 46.0406V36.9442Z" fill="#3C1E7C"/>
</svg>
