<svg width="75" height="80" viewBox="0 0 75 80" fill="none" xmlns="http://www.w3.org/2000/svg">
<rect y="5" width="75" height="75" rx="20" fill="#FFE3E3"/>
<path d="M51.4711 20.3125C52.5591 20.4805 53.6391 20.6325 54.6951 20.9445C55.7511 21.2565 56.6631 21.7205 57.6791 22.0165C55.6711 24.3765 53.5591 26.6965 51.9751 29.3765L55.2951 34.8645L58.2791 40.5365C56.4551 39.8805 54.5991 38.9205 52.6871 38.5685C48.7831 37.8325 45.1751 39.0165 41.3751 39.6085C38.5991 40.0405 35.8311 40.2885 33.0391 39.7365V58.1685C32.3591 58.0565 31.6711 58.0485 30.9831 58.0645C30.7831 58.0645 30.0391 58.2805 30.0391 58.0165V20.5125C31.4951 21.0085 32.8871 21.6565 34.4231 21.8885C39.2711 22.6165 44.0071 20.6005 48.7671 20.3125H51.4711Z" fill="#FF5061"/>
<path d="M40.4555 68.5854H43.5595V71.5934H19.5195V68.5854H22.7275C23.5355 63.4414 28.6715 60.0974 33.7435 61.3214C37.1595 62.1454 39.9355 65.0894 40.4555 68.5854Z" fill="#FF5061"/>
</svg>
