<svg width="75" height="80" viewBox="0 0 75 80" fill="none" xmlns="http://www.w3.org/2000/svg">
<rect y="5" width="75" height="75" rx="20" fill="#FFEBD6"/>
<g clip-path="url(#clip0_460_290)">
<path d="M6.5 81.4613V61.1352C7.05157 58.0531 8.8802 55.3959 11.7039 54.0045L14.6829 53.0157C7.93731 51.9635 5.94843 42.9222 11.8704 39.2972C21.1899 33.5902 28.6287 49.0727 18.0258 52.7635L16.9165 53.0778C22.3427 53.5474 27.5243 51.7001 30.5306 47.0441C32.3791 44.1819 32.307 42.4824 32.6772 39.2749C33.24 34.394 39.5296 32.579 42.6328 36.481C44.459 38.7792 43.8503 42.4613 43.2639 45.1484C41.2912 54.1959 34.1257 61.4222 25.154 63.6073L24.9813 81.5296C24.7453 82.3657 24.1465 82.7508 23.3067 82.8303C18.5215 83.2813 13.0356 82.4837 8.17583 82.8253C7.30127 82.7247 6.86896 82.2092 6.50248 81.4613H6.5Z" fill="#FF850B"/>
<path d="M38.7348 19.3672C39.3547 19.6827 39.9336 20.0765 40.0702 20.8219C40.2069 21.5673 40.1945 24.299 40.0988 25.1313C39.8429 27.3625 36.6341 27.3625 36.3794 25.1313C36.2838 24.299 36.2664 21.6033 36.408 20.8219C36.5496 20.0405 37.1236 19.6827 37.7434 19.3672H38.7348Z" fill="#FF850B"/>
<path d="M61.7993 52.9551C62.095 53.2955 62.7745 53.2681 63.2565 53.4172C67.0008 54.58 69.5648 57.6397 69.9859 61.5628L69.9275 81.469C69.7449 82.0492 69.371 82.4765 68.8095 82.7063C63.4864 82.9449 58.0862 82.8181 52.7382 82.7709C51.8972 82.5324 51.4959 81.8603 51.3829 81.028L51.3282 63.6064C48.4449 62.8411 45.7231 61.5814 43.2845 59.8721C42.9304 59.6236 40.9254 58.1602 40.9776 57.8683C43.3789 54.9266 45.4075 51.4693 46.2995 47.7499C46.4734 47.7102 46.5032 47.7748 46.6113 47.8704C47.1554 48.35 47.7268 49.1947 48.3405 49.7351C51.5183 52.534 55.3867 53.3625 59.5645 53.0768L58.4551 52.7625C53.4525 51.083 51.4872 44.9846 54.9743 40.8665C58.0675 37.2142 63.6069 37.3111 66.5597 41.0665C70.0878 45.5548 67.3511 52.1998 61.7969 52.9551H61.7993Z" fill="#FF850B"/>
<path d="M26.6751 23.1136C27.3546 22.9906 27.772 23.1459 28.3099 23.5285C28.9671 23.9969 31.7473 26.7758 32.2157 27.433C33.4952 29.2281 31.7187 31.2542 29.8665 30.2766C29.3609 30.0095 26.0577 26.7237 25.6651 26.1721C24.849 25.0279 25.2291 23.3732 26.6751 23.1136Z" fill="#FF850B"/>
<path d="M48.992 23.1139C50.6355 22.8182 51.7871 24.4096 51.012 25.8767C50.7498 26.3736 47.3771 29.7613 46.8342 30.129C45.0726 31.3241 43.0987 29.5489 44.0614 27.729C44.3583 27.1674 47.4156 24.1264 48.0317 23.6406C48.3162 23.4158 48.6218 23.1797 48.992 23.1127V23.1139Z" fill="#FF850B"/>
</g>
<defs>
<clipPath id="clip0_460_290">
<rect x="0.5" y="12" width="74" height="68" rx="20" fill="white"/>
</clipPath>
</defs>
</svg>
