<svg width="75" height="80" viewBox="0 0 75 80" fill="none" xmlns="http://www.w3.org/2000/svg">
<rect y="5" width="75" height="75" rx="20" fill="#EFF8D4"/>
<rect x="23.7188" y="28.7207" width="28.5614" height="28.5614" rx="1.92982" fill="#0E5A67"/>
<path d="M39.5457 45.2156H37.2555V46.4002H41.5003V48.3746H37.2555V50.0527H34.3927V48.3746H32.6158V46.4002H34.3927V45.2156H32.6158V42.8465H34.3927V36.2325H39.5457C43.3561 36.2325 45.3502 37.7724 45.3502 40.6747C45.3502 43.5967 43.2772 45.2156 39.5457 45.2156ZM39.5852 38.6017H37.2555V42.8465H39.5852C41.3818 42.8465 42.29 42.1357 42.29 40.7142C42.29 39.3124 41.3818 38.6017 39.5852 38.6017Z" fill="#EFF8D4"/>
<path d="M54.9805 36.0527H58.8401C59.4796 36.0527 59.998 36.5711 59.998 37.2106V37.2106C59.998 37.8501 59.4796 38.3685 58.8401 38.3685H54.9805V36.0527Z" fill="#0E5A67"/>
<path d="M54.9805 41.8418H58.8401C59.4796 41.8418 59.998 42.3602 59.998 42.9997V42.9997C59.998 43.6392 59.4796 44.1576 58.8401 44.1576H54.9805V41.8418Z" fill="#0E5A67"/>
<path d="M54.9805 47.6309H58.8401C59.4796 47.6309 59.998 48.1493 59.998 48.7888V48.7888C59.998 49.4282 59.4796 49.9466 58.8401 49.9466H54.9805V47.6309Z" fill="#0E5A67"/>
<path d="M16 37.2106C16 36.5711 16.5184 36.0527 17.1579 36.0527H21.0175V38.3685H17.1579C16.5184 38.3685 16 37.8501 16 37.2106V37.2106Z" fill="#0E5A67"/>
<path d="M16 42.9997C16 42.3602 16.5184 41.8418 17.1579 41.8418H21.0175V44.1576H17.1579C16.5184 44.1576 16 43.6392 16 42.9997V42.9997Z" fill="#0E5A67"/>
<path d="M16 48.7888C16 48.1493 16.5184 47.6309 17.1579 47.6309H21.0175V49.9466H17.1579C16.5184 49.9466 16 49.4282 16 48.7888V48.7888Z" fill="#0E5A67"/>
<path d="M44.9453 59.9824L44.9453 63.8421C44.9453 64.4816 44.4269 65 43.7874 65V65C43.1479 65 42.6295 64.4816 42.6295 63.8421L42.6295 59.9824L44.9453 59.9824Z" fill="#0E5A67"/>
<path d="M39.1602 59.9824L39.1602 63.8421C39.1602 64.4816 38.6417 65 38.0023 65V65C37.3628 65 36.8444 64.4816 36.8444 63.8421L36.8444 59.9824L39.1602 59.9824Z" fill="#0E5A67"/>
<path d="M33.3672 59.9824L33.3672 63.8421C33.3672 64.4816 32.8488 65 32.2093 65V65C31.5698 65 31.0514 64.4816 31.0514 63.8421L31.0514 59.9824L33.3672 59.9824Z" fill="#0E5A67"/>
<path d="M43.7874 21C44.4269 21 44.9453 21.5184 44.9453 22.1579L44.9453 26.0175L42.6295 26.0175L42.6295 22.1579C42.6295 21.5184 43.1479 21 43.7874 21V21Z" fill="#0E5A67"/>
<path d="M38.0023 21C38.6417 21 39.1602 21.5184 39.1602 22.1579L39.1602 26.0175L36.8444 26.0175L36.8444 22.1579C36.8444 21.5184 37.3628 21 38.0023 21V21Z" fill="#0E5A67"/>
<path d="M32.2093 21C32.8488 21 33.3672 21.5184 33.3672 22.1579L33.3672 26.0175L31.0514 26.0175L31.0514 22.1579C31.0514 21.5184 31.5698 21 32.2093 21V21Z" fill="#0E5A67"/>
</svg>
