<svg width="169" height="47" viewBox="0 0 169 47" fill="none" xmlns="http://www.w3.org/2000/svg">
<path d="M169.002 29.0768C168.98 22.4209 166.235 17.4565 160.825 14.3168C157.929 12.6377 154.645 11.8915 151.335 11.9146C148.025 11.8915 144.741 12.636 141.845 14.3168C136.434 17.4565 133.691 22.4209 133.668 29.0768C133.689 35.7345 136.434 40.6989 141.845 43.8385C144.654 45.4679 147.845 46.2319 151.081 46.2497C151.164 46.2497 151.25 46.2461 151.335 46.2461C151.42 46.2461 151.505 46.2497 151.589 46.2497C154.824 46.2319 158.016 45.4696 160.825 43.8385C166.235 40.6989 168.98 35.7327 169.002 29.0768ZM157.683 35.6528C156.118 37.2448 153.945 38.0888 151.399 38.0923C151.377 38.0923 151.358 38.0923 151.337 38.0923C151.315 38.0923 151.296 38.0923 151.274 38.0923C148.728 38.0888 146.555 37.2466 144.99 35.6528C143.41 34.043 142.554 31.7154 142.563 29.0786C142.552 26.4418 143.408 24.1124 144.99 22.5026C146.553 20.9106 148.726 20.0666 151.274 20.063H151.289C151.305 20.063 151.319 20.063 151.335 20.063C151.351 20.063 151.365 20.063 151.381 20.063H151.395C153.943 20.0648 156.116 20.9088 157.68 22.5026C159.261 24.1124 160.118 26.4418 160.107 29.0786C160.118 31.7154 159.261 34.043 157.68 35.6528H157.683Z" fill="black"/>
<path d="M44.6758 12.2832V20.4476H57.101V45.952H66.1947V20.4476H78.8438V12.2832H44.6758Z" fill="black"/>
<path d="M41.7436 12.2148H32.5664V45.9511H41.7436V12.2148Z" fill="black"/>
<path d="M9.7866 12.2148H0.609375V45.9511H9.7866V12.2148Z" fill="black"/>
<path d="M23.623 12.2148L9.78516 45.9511H19.2467L32.555 12.2148H23.623Z" fill="black"/>
<path d="M115.677 12.2148L106.57 34.4179L97.4616 12.2148H81.7812V45.9511H90.9585V18.3697L101.84 45.9511H111.299L122.181 18.3697V45.9511H131.358V12.2148H115.677Z" fill="black"/>
<path d="M37.1516 0.181641C34.6144 0.181641 32.5586 2.19477 32.5586 4.67519C32.5586 7.15562 34.6144 9.16875 37.1516 9.16875C39.6889 9.16875 41.7447 7.1574 41.7447 4.67519C41.7447 2.19299 39.6889 0.181641 37.1516 0.181641Z" fill="black"/>
</svg>
