<svg width="339" height="63" viewBox="0 0 339 63" fill="none" xmlns="http://www.w3.org/2000/svg">
<path d="M203.133 1.54297H203.938V59.7324H203.133V1.54297Z" fill="black"/>
<path fill-rule="evenodd" clip-rule="evenodd" d="M290.928 57.6562H293.032V62.3125H291.571V59.001H280.078V62.3125H278.617V57.6562H279.007C279.578 57.6562 280.032 57.4422 280.37 57.0137C280.708 56.5852 280.91 55.8971 280.975 54.9492L281.656 45.3652H290.928V57.6562ZM282.396 55.0654C282.345 55.6886 282.234 56.2085 282.065 56.624C281.897 57.0266 281.662 57.3519 281.363 57.5986V57.6562H289.467V46.709H283L282.396 55.0654Z" fill="black"/>
<path d="M222.707 57.0332H222.766L230.985 45.3652H232.681V59.001H231.22V47.333H231.142L222.94 59.001H221.246V45.3652H222.707V57.0332Z" fill="black"/>
<path d="M242.586 51.9355L249.423 45.3652H251.215L244.317 52.0059L251.741 59.001H249.793L242.586 52.2695V59.001H241.125V45.3652H242.586V51.9355Z" fill="black"/>
<path fill-rule="evenodd" clip-rule="evenodd" d="M258.857 45.3652C260.572 45.3652 261.883 45.7681 262.792 46.5732C263.714 47.3783 264.176 48.5272 264.176 50.0205C264.176 51.0074 263.967 51.8515 263.552 52.5527C263.149 53.254 262.552 53.7868 261.76 54.1504C260.968 54.501 260 54.6768 258.857 54.6768H255.215V59.001H253.754V45.3652H258.857ZM255.215 53.332H258.857C260.091 53.332 261.032 53.0467 261.682 52.4756C262.331 51.9042 262.656 51.0854 262.656 50.0205C262.656 48.9428 262.324 48.1248 261.662 47.5664C261.013 46.9951 260.078 46.709 258.857 46.709H255.215V53.332Z" fill="black"/>
<path d="M277.177 46.709H268.684V51.3848H276.105V52.6504H268.684V57.6562H277.177V59.001H267.223V45.3652H277.177V46.709Z" fill="black"/>
<path d="M297.086 57.0332H297.145L305.364 45.3652H307.06V59.001H305.599V47.333H305.521L297.319 59.001H295.625V45.3652H297.086V57.0332Z" fill="black"/>
<path d="M321.027 46.709H315.943V59.001H314.482V46.709H309.398V45.3652H321.027V46.709Z" fill="black"/>
<path fill-rule="evenodd" clip-rule="evenodd" d="M228.938 24.5156C230.331 24.5266 231.552 24.7334 232.601 25.1377C233.691 25.5532 234.536 26.189 235.133 27.0459C235.743 27.89 236.048 28.9359 236.048 30.1826C236.048 31.4421 235.743 32.4939 235.133 33.3379C234.536 34.1819 233.698 34.812 232.62 35.2275C231.565 35.6392 230.338 35.8458 228.938 35.8496V37.1953H227.478V35.8496C226.078 35.8459 224.844 35.6393 223.776 35.2275C222.712 34.812 221.874 34.182 221.264 33.3379C220.666 32.4938 220.367 31.4422 220.367 30.1826C220.367 28.9359 220.666 27.89 221.264 27.0459C221.874 26.189 222.718 25.5532 223.796 25.1377C224.857 24.7334 226.084 24.5265 227.478 24.5156V23.1699H228.938V24.5156ZM228.938 34.5254C230.629 34.5147 231.98 34.1585 232.99 33.4551C234.016 32.7279 234.528 31.6369 234.528 30.1826C234.528 29.2087 234.288 28.3964 233.808 27.7471C233.327 27.098 232.665 26.6173 231.821 26.3057C230.997 26.0012 230.036 25.8469 228.938 25.8398V34.5254ZM227.478 25.8389C225.774 25.8495 224.417 26.2133 223.406 26.9297C222.393 27.6439 221.887 28.7282 221.887 30.1826C221.887 31.1695 222.127 31.9874 222.607 32.6367C223.088 33.2729 223.75 33.7469 224.594 34.0586C225.418 34.3631 226.38 34.5174 227.478 34.5244V25.8389Z" fill="black"/>
<path d="M304.782 23.1699C305.925 23.1699 306.945 23.384 307.841 23.8125C308.737 24.241 309.458 24.8254 310.003 25.5654C310.548 26.3056 310.892 27.131 311.035 28.04H309.535C309.405 27.3909 309.133 26.7999 308.718 26.2676C308.302 25.7222 307.756 25.2931 307.081 24.9814C306.406 24.6698 305.639 24.5137 304.782 24.5137C303.731 24.5137 302.802 24.7605 301.997 25.2539C301.205 25.7344 300.595 26.4037 300.166 27.2607C299.738 28.1178 299.523 29.0919 299.523 30.1826C299.523 31.2734 299.737 32.2474 300.166 33.1045C300.595 33.9615 301.205 34.6364 301.997 35.1299C302.802 35.6103 303.731 35.8505 304.782 35.8506C305.652 35.8506 306.419 35.7019 307.081 35.4033C307.756 35.1046 308.302 34.6887 308.718 34.1562C309.133 33.6239 309.418 33.0134 309.574 32.3252H311.074C310.892 33.2472 310.522 34.0782 309.964 34.8184C309.418 35.5585 308.704 36.1428 307.821 36.5713C306.938 36.9868 305.925 37.1953 304.782 37.1953C303.445 37.1952 302.257 36.8961 301.218 36.2988C300.192 35.7015 299.4 34.8704 298.842 33.8057C298.283 32.7408 298.004 31.5331 298.004 30.1826C298.004 28.8321 298.283 27.6244 298.842 26.5596C299.4 25.4948 300.192 24.6638 301.218 24.0664C302.257 23.4691 303.445 23.17 304.782 23.1699Z" fill="black"/>
<path d="M240.492 35.0332H240.551L248.771 23.3652H250.466V37.001H249.005V25.333H248.927L240.726 37.001H239.031V23.3652H240.492V35.0332Z" fill="black"/>
<path d="M255.766 29.2871H264.181V23.3652H265.642V37.001H264.181V30.6309H255.766V37.001H254.305V23.3652H255.766V29.2871Z" fill="black"/>
<path fill-rule="evenodd" clip-rule="evenodd" d="M281.152 37.001H279.594L278.302 33.8447H270.786L269.484 37.001H267.965L273.614 23.3652H275.522L281.152 37.001ZM271.308 32.5791H277.784L274.588 24.7676H274.529L271.308 32.5791Z" fill="black"/>
<path d="M284.949 29.2871H293.364V23.3652H294.825V37.001H293.364V30.6309H284.949V37.001H283.488V23.3652H284.949V29.2871Z" fill="black"/>
<path fill-rule="evenodd" clip-rule="evenodd" d="M315.594 28.0596H318.827C319.983 28.0596 320.957 28.2353 321.749 28.5859C322.554 28.9236 323.165 29.4236 323.58 30.0859C323.996 30.7482 324.203 31.5662 324.203 32.54C324.203 33.4879 323.996 34.2994 323.58 34.9746C323.165 35.6369 322.554 36.1435 321.749 36.4941C320.944 36.8317 319.97 37.001 318.827 37.001H314.133V23.3652H315.594V28.0596ZM315.594 35.6562H318.827C320.074 35.6562 321.022 35.3971 321.671 34.8779C322.333 34.3455 322.665 33.5659 322.665 32.54C322.665 31.5141 322.34 30.7346 321.69 30.2021C321.041 29.6699 320.087 29.4043 318.827 29.4043H315.594V35.6562Z" fill="black"/>
<path d="M328.061 37.001H326.6V23.3652H328.061V37.001Z" fill="black"/>
<path fill-rule="evenodd" clip-rule="evenodd" d="M228.938 2.51562C230.331 2.52663 231.552 2.73345 232.601 3.1377C233.691 3.55324 234.536 4.18899 235.133 5.0459C235.743 5.89 236.048 6.93594 236.048 8.18262C236.048 9.44206 235.743 10.4939 235.133 11.3379C234.536 12.1819 233.698 12.812 232.62 13.2275C231.565 13.6392 230.338 13.8458 228.938 13.8496V15.1953H227.478V13.8496C226.078 13.8459 224.844 13.6393 223.776 13.2275C222.712 12.812 221.874 12.182 221.264 11.3379C220.666 10.4938 220.367 9.44221 220.367 8.18262C220.367 6.93594 220.666 5.89 221.264 5.0459C221.874 4.18905 222.718 3.55318 223.796 3.1377C224.857 2.73341 226.084 2.52655 227.478 2.51562V1.16992H228.938V2.51562ZM228.938 12.5254C230.629 12.5147 231.98 12.1585 232.99 11.4551C234.016 10.7279 234.528 9.63686 234.528 8.18262C234.528 7.20865 234.288 6.39638 233.808 5.74707C233.327 5.09801 232.665 4.61726 231.821 4.30566C230.997 4.00122 230.036 3.8469 228.938 3.83984V12.5254ZM227.478 3.83887C225.774 3.84953 224.417 4.21332 223.406 4.92969C222.393 5.64393 221.887 6.72817 221.887 8.18262C221.887 9.16948 222.127 9.98745 222.607 10.6367C223.088 11.2729 223.75 11.7469 224.594 12.0586C225.418 12.3631 226.38 12.5174 227.478 12.5244V3.83887Z" fill="black"/>
<path d="M269.499 9.89746H269.558L273.726 1.36523H275.284L270.083 11.8643C269.667 12.7084 269.278 13.3645 268.914 13.832C268.551 14.2993 268.148 14.6435 267.707 14.8643C267.266 15.085 266.746 15.1953 266.148 15.1953C265.954 15.1953 265.765 15.1757 265.583 15.1367C265.401 15.1107 265.233 15.0658 265.077 15.001V13.6562C265.402 13.7861 265.759 13.8516 266.148 13.8516C266.486 13.8516 266.791 13.7926 267.063 13.6758C267.336 13.5459 267.583 13.3449 267.804 13.0723C268.037 12.7866 268.271 12.4098 268.505 11.9424L268.788 11.375L263.188 1.36523H264.785L269.499 9.89746Z" fill="black"/>
<path d="M287.303 15.001H285.842V2.70898H279.199L278.615 11.4941C278.524 12.8314 278.245 13.786 277.777 14.3574C277.31 14.9157 276.609 15.1952 275.674 15.1953C275.505 15.1953 275.342 15.1822 275.187 15.1562C275.031 15.1303 274.894 15.092 274.777 15.04V13.6953C274.959 13.7602 275.173 13.7929 275.42 13.793C275.81 13.793 276.122 13.7285 276.355 13.5986C276.602 13.4558 276.79 13.2088 276.92 12.8584C277.05 12.5079 277.134 12.0271 277.173 11.417L277.855 1.36523H287.303V15.001Z" fill="black"/>
<path fill-rule="evenodd" clip-rule="evenodd" d="M250.301 15.001H248.742L247.45 11.8447H239.935L238.633 15.001H237.113L242.763 1.36523H244.671L250.301 15.001ZM240.456 10.5791H246.933L243.736 2.76758H243.678L240.456 10.5791Z" fill="black"/>
<path d="M254.094 7.93555L260.931 1.36523H262.723L255.825 8.00586L263.249 15.001H261.301L254.094 8.26953V15.001H252.633V1.36523H254.094V7.93555Z" fill="black"/>
<path fill-rule="evenodd" clip-rule="evenodd" d="M292.613 6.05957H296.217C297.373 6.05957 298.347 6.23532 299.139 6.58594C299.944 6.92358 300.548 7.43019 300.95 8.10547C301.366 8.76773 301.574 9.57915 301.574 10.54C301.574 11.488 301.366 12.2994 300.95 12.9746C300.535 13.6369 299.924 14.1435 299.119 14.4941C298.327 14.8317 297.36 15.001 296.217 15.001H291.152V1.36523H292.613V6.05957ZM292.613 13.6562H296.217C297.463 13.6562 298.411 13.3971 299.061 12.8779C299.723 12.3455 300.055 11.5659 300.055 10.54C300.055 9.51413 299.729 8.73458 299.08 8.20215C298.431 7.66991 297.476 7.4043 296.217 7.4043H292.613V13.6562Z" fill="black"/>
<path d="M313.094 2.70898H308.01V15.001H306.549V2.70898H301.465V1.36523H313.094V2.70898Z" fill="black"/>
<path d="M325.38 2.70898H316.887V7.38477H324.309V8.65039H316.887V13.6562H325.38V15.001H315.426V1.36523H325.38V2.70898Z" fill="black"/>
<path d="M338.605 2.70898H333.521V15.001H332.061V2.70898H326.977V1.36523H338.605V2.70898Z" fill="black"/>
<path d="M86.0771 30.5479H86.2441L91.9346 18.3301H96.9229L88.5879 35.6025C87.8068 37.2093 87.0252 38.4926 86.2441 39.4521C85.4632 40.3893 84.5932 41.081 83.6338 41.5273C82.6742 41.9514 81.5354 42.1641 80.2188 42.1641C79.7502 42.164 79.3147 42.1304 78.9131 42.0635C78.5339 42.0188 78.1655 41.9406 77.8086 41.8291V37.8125C78.5004 38.0357 79.2038 38.1465 79.918 38.1465C80.4757 38.1465 80.9776 38.0683 81.4238 37.9121C81.8701 37.7336 82.2719 37.4663 82.6289 37.1094C83.0083 36.73 83.3437 36.2501 83.6338 35.6699L83.8301 35.2686L74.1602 18.3301H79.416L86.0771 30.5479Z" fill="black"/>
<path d="M174.929 30.5479H175.096L180.786 18.3301H185.774L177.439 35.6025C176.658 37.2093 175.877 38.4926 175.096 39.4521C174.315 40.3893 173.445 41.081 172.485 41.5273C171.526 41.9514 170.387 42.1641 169.07 42.1641C168.602 42.164 168.166 42.1304 167.765 42.0635C167.385 42.0188 167.017 41.9406 166.66 41.8291V37.8125C167.352 38.0357 168.055 38.1465 168.77 38.1465C169.327 38.1465 169.829 38.0683 170.275 37.9121C170.722 37.7336 171.123 37.4663 171.48 37.1094C171.86 36.73 172.195 36.2501 172.485 35.6699L172.682 35.2686L163.012 18.3301H168.268L174.929 30.5479Z" fill="black"/>
<path d="M56.4004 29.4551L66.1748 18.3301H71.8662L61.8252 29.6582L72.6357 41.7617H66.543L56.4004 30.3623V41.7617H51.5469V18.3301H56.4004V29.4551Z" fill="black"/>
<path fill-rule="evenodd" clip-rule="evenodd" d="M117.183 22.3467H104.127V27.0332H110.019C112.072 27.0332 113.79 27.3122 115.174 27.8701C116.557 28.428 117.595 29.2542 118.287 30.3477C119.001 31.441 119.358 32.791 119.358 34.3975C119.358 36.8076 118.566 38.638 116.981 39.8877C115.397 41.1374 113.076 41.7617 110.019 41.7617H99.2734V18.3301H117.183V22.3467ZM104.127 37.7451H109.718C111.19 37.7451 112.295 37.4661 113.031 36.9082C113.79 36.3503 114.17 35.5133 114.17 34.3975C114.17 33.2818 113.801 32.4446 113.064 31.8867C112.328 31.3291 111.212 31.0508 109.718 31.0508H104.127V37.7451Z" fill="black"/>
<path d="M141.269 22.5146H128.381V41.7617H123.527V18.3301H141.269V22.5146Z" fill="black"/>
<path fill-rule="evenodd" clip-rule="evenodd" d="M164.359 41.7617H159.205L157.495 37.4102H145.992L144.275 41.7617H139.254L148.761 18.3301H154.853L164.359 41.7617ZM147.578 33.3936H155.917L151.84 23.0166H151.673L147.578 33.3936Z" fill="black"/>
<path d="M15.3831 43.632L15.322 43.571C12.3717 38.9523 12.7202 34.0818 16.3317 29.4605C17.8425 27.5326 24.6841 20.3782 29.2825 15.6094C30.2032 17.6263 30.6635 19.8008 30.6635 21.9779C30.6635 25.648 29.3537 29.3206 26.7341 32.2353L26.0931 32.8915L15.3831 43.6346V43.632Z" fill="url(#paint0_radial_458_184)"/>
<path d="M4.70157 32.2963C4.65324 32.1106 4.61255 31.9199 4.58203 31.7266C4.61509 31.9224 4.65578 32.1106 4.70157 32.2963Z" fill="url(#paint1_radial_458_184)"/>
<path d="M30.6595 45.3105V54.4107C26.234 54.4107 18.726 56.2724 15.5494 60.5554C15.4756 60.4715 15.4044 60.3876 15.3281 60.3062V49.8377C15.3586 49.8581 15.3866 49.8809 15.4171 49.9013C19.84 46.7374 25.1989 45.3996 30.6569 45.3105H30.6595Z" fill="url(#paint2_radial_458_184)"/>
<path d="M15.3288 49.8377V60.3062C11.2162 55.7205 5.76833 54.4107 0 54.4107V45.3105C5.41734 45.3996 10.9415 46.7196 15.3288 49.8377Z" fill="url(#paint3_radial_458_184)"/>
<path d="M20.5287 5.51833C17.6598 8.39995 10.8715 15.2161 7.79155 18.2605C4.65813 21.3583 2.51154 26.1856 2.51409 30.3415C-1.37216 24.4027 -0.710886 16.3607 4.50045 11.1392L15.3479 0.322266L20.5287 5.51833Z" fill="url(#paint4_radial_458_184)"/>
<path d="M14.7683 28.237C11.8384 31.9808 10.793 35.9891 11.6476 39.9059L5.07557 33.3542C5.07557 33.3542 5.07049 33.3491 5.07049 33.344C5.0476 33.2932 5.02471 33.2372 4.99928 33.1838C4.97384 33.1278 4.95095 33.0719 4.92806 33.0134C4.9128 32.9803 4.90263 32.9447 4.88737 32.9091C4.85685 32.8277 4.82633 32.7438 4.80344 32.6573C4.76529 32.5378 4.72968 32.4157 4.69916 32.2936C4.65338 32.108 4.61268 31.9172 4.57962 31.7239C4.5669 31.6603 4.55673 31.5967 4.5491 31.5281C4.53384 31.4416 4.52621 31.3526 4.51604 31.2636C4.50586 31.1847 4.50078 31.1033 4.49569 31.0245C4.49569 30.994 4.4906 30.9609 4.48806 30.9304C4.48297 30.8643 4.47789 30.7956 4.47534 30.7269C4.47534 30.6709 4.47026 30.6125 4.46771 30.554C4.3787 26.9348 6.37014 22.4534 9.18563 19.6709C9.43234 19.4268 9.70194 19.1597 9.99442 18.8723L10.2157 18.6511C10.4421 18.4272 10.676 18.1933 10.9202 17.9516L11.1669 17.7049C11.4187 17.4557 11.6756 17.1988 11.9426 16.9317C12.0316 16.8427 12.1207 16.7563 12.2097 16.6647C12.3038 16.5706 12.4004 16.4739 12.4996 16.3773C12.5836 16.2908 12.67 16.2069 12.759 16.1179C13.8273 15.0497 14.9718 13.9052 16.0959 12.7784C16.1722 12.7021 16.246 12.6259 16.3248 12.5496C16.4749 12.397 16.6249 12.2443 16.7775 12.0943L17.0039 11.8679C17.0802 11.7916 17.1514 11.7179 17.2277 11.6416C17.304 11.5653 17.3752 11.4915 17.4515 11.4178C17.5278 11.3415 17.599 11.2677 17.6728 11.1939C17.7644 11.1024 17.8559 11.0108 17.9475 10.9193C18.0747 10.7921 18.2018 10.6649 18.3264 10.5378C18.3977 10.4665 18.4689 10.3979 18.5401 10.3241C18.8249 10.0393 19.0996 9.76203 19.3667 9.49498C19.4328 9.42631 19.5015 9.36019 19.5676 9.29406C20.4908 8.36574 21.3047 7.54677 21.9355 6.91602L26.1574 11.1482C26.6127 11.606 27.0629 12.0689 27.4571 12.5775C27.7572 12.9641 28.037 13.3609 28.2938 13.7704C23.6777 18.5493 16.4011 26.1514 14.7734 28.2319L14.7683 28.237Z" fill="url(#paint5_radial_458_184)"/>
<path d="M30.6635 21.9754C30.6635 25.6455 29.3537 29.3181 26.7341 32.2327L26.0931 32.8889L15.3831 43.632L15.322 43.571C12.3717 38.9523 12.7202 34.0818 16.3317 29.4605C17.8425 27.5326 24.6841 20.3782 29.2825 15.6094C30.2032 17.6263 30.6635 19.8008 30.6635 21.9779V21.9754Z" fill="url(#paint6_radial_458_184)"/>
<defs>
<radialGradient id="paint0_radial_458_184" cx="0" cy="0" r="1" gradientUnits="userSpaceOnUse" gradientTransform="translate(39.7179 20.3146) scale(50.2668 50.2669)">
<stop stop-color="#EBFF00"/>
<stop offset="1" stop-color="#008900"/>
</radialGradient>
<radialGradient id="paint1_radial_458_184" cx="0" cy="0" r="1" gradientUnits="userSpaceOnUse" gradientTransform="translate(4.65324 31.7215) scale(0.62819 0.628223)">
<stop stop-color="#EBFF00"/>
<stop offset="1" stop-color="#008900"/>
</radialGradient>
<radialGradient id="paint2_radial_458_184" cx="0" cy="0" r="1" gradientUnits="userSpaceOnUse" gradientTransform="translate(-2.6076 32.5073) scale(64.3392 64.3392)">
<stop stop-color="#EBFF00"/>
<stop offset="1" stop-color="#008900"/>
</radialGradient>
<radialGradient id="paint3_radial_458_184" cx="0" cy="0" r="1" gradientUnits="userSpaceOnUse" gradientTransform="translate(-7.22821 47.4927) scale(31.3087 31.3087)">
<stop stop-color="#EBFF00"/>
<stop offset="1" stop-color="#008900"/>
</radialGradient>
<radialGradient id="paint4_radial_458_184" cx="0" cy="0" r="1" gradientUnits="userSpaceOnUse" gradientTransform="translate(16.2279 -3.90479) scale(48.0389 48.0389)">
<stop stop-color="#EBFF00"/>
<stop offset="1" stop-color="#008900"/>
</radialGradient>
<radialGradient id="paint5_radial_458_184" cx="0" cy="0" r="1" gradientUnits="userSpaceOnUse" gradientTransform="translate(26.3151 -5.58712) scale(57.6197 57.6197)">
<stop stop-color="#EBFF00"/>
<stop offset="1" stop-color="#008900"/>
</radialGradient>
<radialGradient id="paint6_radial_458_184" cx="0" cy="0" r="1" gradientUnits="userSpaceOnUse" gradientTransform="translate(48.8816 26.205) scale(46.7646 46.7646)">
<stop stop-color="#EBFF00"/>
<stop offset="1" stop-color="#008900"/>
</radialGradient>
</defs>
</svg>
